#!OML:ASF X:\für Bonn\!DataBase\2005_08_10_Bjorn_Final\c3d\bjorn.ASF
:FULLY-SPECIFIED
:DEGREES
121
root 1.1033 19.5411 3.30702 -203.88 -43.3464 -159.587
lowerback 30.8914 0.299305 -5.04444
upperback 20.859 -5.80556 -2.21076
thorax 6.97983 -5.33341 1.33876
lowerneck -5.32119 -6.83242 -2.57813
upperneck 2.60578 -12.4128 27.3672
head 3.72456 -6.30342 8.19852
rclavicle 2.54444e-014 -6.67916e-014
rhumerus -42.8314 -2.62007 -87.7652
rradius 25.9194
rwrist 21.8678
rhand -14.3248 16.4093
rfingers 7.12502
rthumb 11.8159 -13.2374
lclavicle 2.54444e-014 -6.67916e-014
lhumerus 57.9521 -30.7925 84.5983
lradius 106.041
lwrist 2.8033
lhand -36.0146 -20.0135
lfingers 7.12502
lthumb -9.12392 9.76915
rfemur -88.9937 -6.42682 21.6993
rtibia 123.173
rfoot -11.1199 19.9544
rtoes -33.8861
lfemur -3.66186 -15.4071 -5.89408
ltibia 22.2901
lfoot 1.32105 -21.2983
ltoes 14.3003
122
root 1.07161 19.5419 3.29959 -203.604 -43.1248 -159.971
lowerback 30.3187 0.282454 -5.11826
upperback 20.8284 -5.76227 -2.21553
thorax 7.1714 -5.30513 1.33001
lowerneck -5.55181 -6.8319 -2.22456
upperneck 2.92619 -12.4857 27.0011
head 3.82068 -6.2879 7.9965
rclavicle -2.8625e-014 -3.18055e-014
rhumerus -42.7484 -2.5356 -87.7552
rradius 25.9377
rwrist 21.9057
rhand -14.2451 16.4278
rfingers 7.12502
rthumb 11.8928 -13.2144
lclavicle -2.8625e-014 -3.18055e-014
lhumerus 57.4224 -30.4994 84.5988
lradius 105.669
lwrist 2.81763
lhand -35.5176 -20.0082
lfingers 7.12502
lthumb -8.64425 9.79485
rfemur -87.964 -6.58434 21.7509
rtibia 122.859
rfoot -11.0034 19.8095
rtoes -33.8879
lfemur -3.40241 -15.062 -6.16138
ltibia 22.1578
lfoot 1.31888 -21.3148
ltoes 14.3619
123
root 1.03949 19.5429 3.29146 -203.255 -42.9214 -160.366
lowerback 29.6963 0.23777 -5.21038
upperback 20.745 -5.73202 -2.20694
thorax 7.33009 -5.27541 1.35045
lowerneck -5.75659 -6.84001 -1.91332
upperneck 3.25631 -12.56 26.6112
head 3.91572 -6.27283 7.79601
rclavicle 2.54444e-014 9.54166e-015
rhumerus -42.7419 -2.44284 -87.6892
rradius 26.0025
rwrist 21.9519
rhand -14.1675 16.4403
rfingers 7.12502
rthumb 11.9676 -13.1976
lclavicle 2.54444e-014 9.54166e-015
lhumerus 56.8087 -30.1704 84.5853
lradius 105.329
lwrist 2.91034
lhand -35.0271 -20.017
lfingers 7.12502
lthumb -8.17093 9.805
rfemur -86.8898 -6.73224 21.7766
rtibia 122.454
rfoot -10.8663 19.6529
rtoes -33.8645
lfemur -3.23265 -14.6878 -6.42158
ltibia 22.0389
lfoot 1.34122 -21.3556
ltoes 14.5859
124
root 1.00652 19.5467 3.28378 -202.896 -42.7183 -160.758
lowerback 29.0508 0.187774 -5.31004
upperback 20.6493 -5.70268 -2.18099
thorax 7.4912 -5.24595 1.39287
lowerneck -5.99962 -6.8357 -1.52825
upperneck 3.61405 -12.6183 26.1364
head 4.01209 -6.24434 7.5559
rclavicle 5.725e-014 -3.18055e-014
rhumerus -42.704 -2.32768 -87.5901
rradius 26.0291
rwrist 21.9444
rhand -14.1484 16.427
rfingers 7.12502
rthumb 11.986 -13.2098
lclavicle 5.725e-014 -3.18055e-014
lhumerus 56.191 -29.8492 84.5597
lradius 104.943
lwrist 2.98424
lhand -34.5366 -19.9601
lfingers 7.12502
lthumb -7.69747 9.87983
rfemur -85.759 -6.88963 21.7999
rtibia 121.988
rfoot -10.73 19.4443
rtoes -33.8899
lfemur -3.07171 -14.3231 -6.67671
ltibia 21.9143
lfoot 1.39388 -21.401
ltoes 14.8318
125
root 0.971718 19.5497 3.27482 -202.571 -42.4933 -161.135
lowerback 28.3936 0.135872 -5.42492
upperback 20.5399 -5.6745 -2.1119
thorax 7.65183 -5.22078 1.48908
lowerneck -6.15946 -6.81603 -1.22699
upperneck 3.94137 -12.6183 25.6226
head 4.07771 -6.19414 7.3281
rclavicle -8.90555e-014 3.81667e-014
rhumerus -42.6962 -2.21121 -87.4023
rradius 26.0919
rwrist 21.9738
rhand -14.0832 16.3701
rfingers 7.12502
rthumb 12.0489 -13.2631
lclavicle -8.90555e-014 3.81667e-014
lhumerus 55.5811 -29.5091 84.5714
lradius 104.498
lwrist 2.98588
lhand -34.1179 -19.865
lfingers 7.12502
lthumb -7.29338 9.98934
rfemur -84.5392 -7.05075 21.8307
rtibia 121.469
rfoot -10.5883 19.2237
rtoes -34.0326
lfemur -2.87745 -13.9076 -6.91972
ltibia 21.7803
lfoot 1.42883 -21.471
ltoes 15.0414
126
root 0.934221 19.5519 3.26546 -202.211 -42.2841 -161.55
lowerback 27.5662 0.0548206 -5.50097
upperback 20.1987 -5.64414 -2.12206
thorax 8.15288 -5.18952 1.53593
lowerneck -6.22675 -6.7963 -0.894369
upperneck 4.2335 -12.6013 25.0845
head 4.11043 -6.14589 7.09435
rclavicle -9.22361e-014 7.95139e-014
rhumerus -42.7462 -2.06001 -87.2571
rradius 26.2023
rwrist 21.8179
rhand -14.0111 16.2895
rfingers 7.12502
rthumb 12.1184 -13.3395
lclavicle -9.22361e-014 7.95139e-014
lhumerus 54.9262 -29.2282 84.5732
lradius 104.022
lwrist 2.96142
lhand -33.7337 -19.7005
lfingers 7.12502
lthumb -6.92246 10.1663
rfemur -83.2714 -7.2679 21.8123
rtibia 120.911
rfoot -10.4857 18.9913
rtoes -34.2157
lfemur -2.67043 -13.514 -7.20619
ltibia 21.6151
lfoot 1.48571 -21.519
ltoes 15.3337
127
root 0.894216 19.5553 3.25456 -201.863 -42.0552 -161.939
lowerback 26.8313 -0.0345317 -5.57817
upperback 20.0604 -5.63749 -2.0529
thorax 8.33087 -5.16488 1.60849
lowerneck -6.32275 -6.77886 -0.681253
upperneck 4.55346 -12.5806 24.5635
head 4.16541 -6.09163 6.88648
rclavicle 4.45278e-014 -1.90833e-014
rhumerus -42.7733 -1.80839 -87.0961
rradius 26.3332
rwrist 21.6251
rhand -13.9354 16.1923
rfingers 7.12502
rthumb 12.1914 -13.4324
lclavicle 4.45278e-014 -1.90833e-014
lhumerus 54.2606 -28.9113 84.5835
lradius 103.509
lwrist 2.99184
lhand -33.4102 -19.5148
lfingers 7.12502
lthumb -6.61022 10.362
rfemur -81.9436 -7.47569 21.799
rtibia 120.308
rfoot -10.4246 18.7109
rtoes -34.5625
lfemur -2.46068 -13.0778 -7.46457
ltibia 21.4466
lfoot 1.51852 -21.6309
ltoes 15.4452
128
root 0.85341 19.5596 3.24374 -201.515 -41.8282 -162.36
lowerback 26.0845 -0.113989 -5.67391
upperback 19.9246 -5.62227 -1.97581
thorax 8.5247 -5.13953 1.69621
lowerneck -6.4672 -6.78371 -0.519127
upperneck 4.89548 -12.5903 24.0464
head 4.2438 -6.04776 6.68443
rclavicle 7.31528e-014 7.31528e-014
rhumerus -42.7399 -1.65985 -86.8771
rradius 26.4232
rwrist 21.4313
rhand -13.797 16.0537
rfingers 7.12502
rthumb 12.3249 -13.5631
lclavicle 7.31528e-014 7.31528e-014
lhumerus 53.5696 -28.6276 84.6093
lradius 102.942
lwrist 2.94675
lhand -33.0951 -19.3699
lfingers 7.12502
lthumb -6.30606 10.5162
rfemur -80.506 -7.69621 21.7284
rtibia 119.643
rfoot -10.4021 18.4053
rtoes -34.9093
lfemur -2.21805 -12.6058 -7.75354
ltibia 21.2622
lfoot 1.58426 -21.7372
ltoes 15.7098
